<svg width="24" height="28" viewBox="0 0 24 28" fill="none" xmlns="http://www.w3.org/2000/svg">
<path id="Shape" d="M12.2813 6.46154C13.5571 6.46154 15.1563 5.60712 16.1087 4.4679C16.9712 3.43547 17.6001 1.99364 17.6001 0.551812C17.6001 0.356008 17.5821 0.160203 17.5462 0C16.1267 0.0534012 14.4196 0.943421 13.3954 2.13605C12.5868 3.04387 11.8501 4.4679 11.8501 5.92753C11.8501 6.14113 11.886 6.35474 11.904 6.42594C11.9938 6.44374 12.1376 6.46154 12.2813 6.46154ZM7.78916 28C9.53213 28 10.3048 26.843 12.479 26.843C14.6892 26.843 15.1743 27.9644 17.1149 27.9644C19.0196 27.9644 20.2954 26.22 21.4993 24.5111C22.847 22.5531 23.404 20.6306 23.4399 20.5416C23.3142 20.506 19.6665 19.0286 19.6665 14.8811C19.6665 11.2854 22.5415 9.66561 22.7032 9.541C20.7985 6.83535 17.9056 6.76414 17.1149 6.76414C14.9767 6.76414 13.2337 8.04577 12.1376 8.04577C10.9517 8.04577 9.38838 6.83535 7.5376 6.83535C4.01572 6.83535 0.439941 9.71901 0.439941 15.1659C0.439941 18.548 1.76963 22.1259 3.40478 24.4399C4.80635 26.398 6.02822 28 7.78916 28Z" fill="#000100"/>
</svg>
