<svg width="28" height="28" viewBox="0 0 28 28" fill="none" xmlns="http://www.w3.org/2000/svg">
  <g id="Wrapper">
    <path id="Shape" fill-rule="evenodd" clip-rule="evenodd" d="M27.44 14.3182C27.44 13.3255 27.3509 12.371 27.1855 11.4546H14V16.87H21.5345C21.21 18.62 20.2236 20.1028 18.7409 21.0955V24.6082H23.2655C25.9127 22.171 27.44 18.5819 27.44 14.3182Z" fill="#4285F4" />
    <path id="Shape_2" fill-rule="evenodd" clip-rule="evenodd" d="M14.0002 28C17.7802 28 20.9493 26.7464 23.2656 24.6082L18.7411 21.0955C17.4874 21.9355 15.8838 22.4319 14.0002 22.4319C10.3538 22.4319 7.26744 19.9691 6.16653 16.66H1.48926V20.2873C3.7929 24.8628 8.52744 28 14.0002 28Z" fill="#34A853" />
    <path id="Shape_3" fill-rule="evenodd" clip-rule="evenodd" d="M6.16637 16.66C5.88637 15.82 5.72728 14.9228 5.72728 14C5.72728 13.0773 5.88637 12.18 6.16637 11.34V7.71277H1.48909C0.540909 9.60277 0 11.741 0 14C0 16.2591 0.540909 18.3973 1.48909 20.2873L6.16637 16.66Z" fill="#FBBC05" />
    <path id="Shape_4" fill-rule="evenodd" clip-rule="evenodd" d="M14.0002 5.56818C16.0556 5.56818 17.9011 6.27455 19.352 7.66182L23.3674 3.64637C20.9429 1.38727 17.7738 0 14.0002 0C8.52744 0 3.7929 3.13727 1.48926 7.71273L6.16653 11.34C7.26744 8.03091 10.3538 5.56818 14.0002 5.56818Z" fill="#EA4335" />
  </g>
</svg>
